<svg width="0" height="0" class="hidden">
  <symbol  xmlns="http://www.w3.org/2000/svg" viewBox="0 0 50 50" id="logo">
    <path d="M20.4506 5.25918C19.0919 5.69691 17.9456 6.47652 17.6601 7.15634L17.5398 7.4419L15.6561 7.43301L15.4116 6.93006C15.2253 6.54668 15.063 6.3708 14.7263 6.18701L14.2864 5.94591H11.1062C6.93498 5.94591 6.40895 6.15341 6.40895 7.80355V8.26796L5.69955 8.61478C3.08441 9.8924 1.03538 12.416 0.225789 15.3546L0.000346207 16.1748V26.2584C0.000346207 37.2698 -0.0327188 36.5584 0.547422 38.1166C1.84798 41.6086 4.86291 44.1352 8.54916 44.8258C9.78859 45.0581 40.2114 45.0581 41.4508 44.8258C45.1371 44.1362 48.152 41.6096 49.4526 38.1166C50.0327 36.5584 49.9997 37.2698 49.9997 26.2584V16.1748L49.7832 15.4031C48.649 11.3647 45.7433 8.61182 41.6342 7.67905C41.02 7.53972 40.2134 7.50514 36.6765 7.46858L32.4532 7.42412L32.3369 7.14745C32.0504 6.46565 30.8209 5.64553 29.4663 5.23349C28.3992 4.9084 21.4756 4.92816 20.4506 5.25918ZM40.0601 10.8222C43.053 11.1256 45.3856 12.9526 46.3976 15.7874L46.6731 16.5591L46.7012 25.871C46.7332 36.5189 46.7653 36.0218 45.9236 37.7342C44.9758 39.662 43.064 41.1205 40.9288 41.5453C39.7856 41.7726 10.2114 41.7726 9.07118 41.5453C6.91594 41.1145 5.0112 39.6284 4.00923 37.5949C3.24473 36.0426 3.26677 36.4072 3.29883 25.871L3.32689 16.5591L3.63149 15.7163C4.60841 13.0168 6.9961 11.1167 9.77356 10.8291C10.9589 10.7066 38.8517 10.6997 40.0601 10.8212V10.8222ZM9.51706 11.8884C6.37889 12.3419 4.35391 14.8942 4.35391 18.398V19.6954H11.0661L11.2915 19.2369C12.2845 17.2123 14.2844 15.0167 16.4357 13.5869C17.2402 13.0524 19.3614 11.9763 19.6109 11.9763C19.669 11.9763 19.7161 11.9328 19.7161 11.8795C19.7161 11.7609 10.3457 11.7678 9.51706 11.8874V11.8884ZM30.2839 11.8548C30.2839 11.9002 30.4492 11.9951 30.6506 12.0652C33.7206 13.1294 37.462 16.4702 38.7385 19.2863L38.9249 19.6964H45.6471V18.399C45.6471 15.1284 44.1341 12.9842 41.1462 12.0168C40.5581 11.8261 30.2849 11.674 30.2849 11.8558L30.2839 11.8548ZM24.0707 12.5178C12.6663 13.6156 7.13237 25.9748 14.0931 34.7976C21.7892 44.5512 37.8768 39.7015 38.8858 27.3236C39.5611 19.0343 32.2528 11.7313 24.0707 12.5178ZM26.6638 15.9455C33.2327 16.8753 37.3277 23.963 34.8278 30.0774C31.9482 37.1216 22.708 38.9279 17.4136 33.4804C10.3908 26.2544 16.5819 14.5187 26.6638 15.9455ZM23.8723 17.5719C17.9617 18.395 14.553 24.3474 16.8885 29.7701C19.5698 35.9942 28.5605 36.7659 32.376 31.1001C36.5512 24.9007 31.2949 16.5394 23.8723 17.5719ZM27.7168 18.9098C28.8581 19.2596 29.7118 20.0768 29.7318 20.8366C29.7779 22.5886 26.2289 22.5332 25.0416 20.7635C24.1388 19.4187 25.747 18.3051 27.7168 18.9098ZM22.701 32.2552C23.7821 32.4805 25.3923 33.4557 25.3923 33.8846C25.3923 34.8865 21.7581 34.2393 20.697 33.0486C19.9636 32.2246 20.8564 31.8708 22.701 32.2552ZM41.9128 35.9991C39.8938 36.6167 40.2846 39.3863 42.3897 39.3794C44.5309 39.3725 44.6902 36.2629 42.564 35.9734C42.3486 35.9438 42.056 35.9556 41.9128 36.0001V35.9991Z" fill="white"></path>
  </symbol>
  <symbol  xmlns="http://www.w3.org/2000/svg" viewBox="0 0 16 16" id="©">
    <path d="M4 7.72727C4 6.95076 4.18939 6.2429 4.56818 5.60369C4.94697 4.96449 5.45597 4.45549 6.09517 4.0767C6.73438 3.69792 7.44223 3.50852 8.21875 3.50852C8.8911 3.50852 9.51136 3.65294 10.0795 3.94176C10.6525 4.23059 11.1259 4.62595 11.5 5.12784C11.8741 5.625 12.1061 6.18845 12.196 6.81818H10.4773C10.3826 6.33049 10.1198 5.93277 9.68892 5.625C9.25805 5.3125 8.76799 5.15625 8.21875 5.15625C7.74527 5.15625 7.31439 5.27225 6.92614 5.50426C6.53788 5.73627 6.22775 6.0464 5.99574 6.43466C5.76373 6.82292 5.64773 7.25379 5.64773 7.72727C5.64773 8.20076 5.76373 8.63163 5.99574 9.01989C6.22775 9.40814 6.53788 9.71828 6.92614 9.95028C7.31439 10.1823 7.74527 10.2983 8.21875 10.2983C8.76799 10.2983 9.23201 10.1444 9.6108 9.83665C9.99432 9.52415 10.2358 9.12405 10.3352 8.63636H12.054C11.964 9.2661 11.7438 9.83191 11.3935 10.3338C11.0431 10.831 10.5933 11.224 10.044 11.5128C9.49953 11.8016 8.8911 11.946 8.21875 11.946C7.44223 11.946 6.73438 11.7566 6.09517 11.3778C5.45597 10.9991 4.94697 10.4901 4.56818 9.85085C4.18939 9.21165 4 8.50379 4 7.72727ZM8.14773 15.2273C7.11553 15.2273 6.14489 15.0331 5.2358 14.6449C4.33144 14.2566 3.53362 13.7192 2.84233 13.0327C2.15578 12.3414 1.616 11.5436 1.22301 10.6392C0.834754 9.73485 0.642992 8.7642 0.647727 7.72727C0.652462 6.69034 0.848958 5.7197 1.23722 4.81534C1.63021 3.91098 2.16998 3.11553 2.85653 2.42898C3.54309 1.73769 4.33854 1.19792 5.2429 0.809659C6.14725 0.421401 7.11553 0.227273 8.14773 0.227273C9.18466 0.227273 10.1553 0.421401 11.0597 0.809659C11.9688 1.19792 12.7642 1.73769 13.446 2.42898C14.1326 3.11553 14.67 3.91098 15.0582 4.81534C15.4465 5.7197 15.643 6.69034 15.6477 7.72727C15.6525 8.7642 15.4607 9.73485 15.0724 10.6392C14.6842 11.5436 14.1468 12.3414 13.4602 13.0327C12.7737 13.7192 11.9759 14.2566 11.0668 14.6449C10.1577 15.0331 9.18466 15.2273 8.14773 15.2273ZM8.14773 13.5795C8.95739 13.5795 9.71733 13.428 10.4276 13.125C11.1378 12.822 11.7604 12.4029 12.2955 11.8679C12.8305 11.3329 13.2495 10.7126 13.5526 10.0071C13.8556 9.29687 14.0047 8.5393 14 7.73438C13.9953 6.92472 13.8414 6.16477 13.5384 5.45455C13.2353 4.74432 12.8163 4.12169 12.2812 3.58665C11.7462 3.05161 11.1259 2.63258 10.4205 2.32955C9.71496 2.02652 8.95739 1.875 8.14773 1.875C7.3428 1.875 6.58759 2.02652 5.8821 2.32955C5.17661 2.63258 4.55634 3.05398 4.02131 3.59375C3.48627 4.12879 3.06487 4.75142 2.7571 5.46165C2.45407 6.16714 2.30019 6.92472 2.29545 7.73438C2.29072 8.53456 2.43987 9.28977 2.7429 10C3.04593 10.7055 3.46496 11.3258 4 11.8608C4.53977 12.3958 5.16241 12.8172 5.8679 13.125C6.57813 13.428 7.33807 13.5795 8.14773 13.5795Z" fill="white"></path>
  </symbol>
  <symbol  xmlns="http://www.w3.org/2000/svg" viewBox="0 0 62 50" id="camera 1">
    <g clip-path="url(#clip0_6_114)">
      <path d="M30.897 50.036C22.766 50.036 14.635 50.036 6.505 50.036C6.478 50.036 6.447 50.037 6.415 50.037C2.872 50.037 0 47.165 0 43.622C0 43.59 0 43.559 0.001 43.527V43.532C0.0723333 34.0967 0.0723333 24.6554 0.001 15.208C0.001 15.197 0.001 15.185 0.001 15.172C0.001 11.619 2.881 8.73903 6.434 8.73903C22.767 8.73903 39.082 8.73903 55.415 8.73903C55.497 8.73503 55.593 8.73303 55.69 8.73303C59.085 8.73303 61.837 11.485 61.837 14.88C61.837 14.983 61.834 15.085 61.829 15.186L61.83 15.172V43.532C61.837 43.641 61.841 43.768 61.841 43.897C61.841 47.292 59.089 50.044 55.694 50.044C55.59 50.044 55.486 50.041 55.383 50.036L55.398 50.037L30.897 50.036ZM30.897 43.871C30.939 43.871 30.99 43.872 31.04 43.872C39.014 43.872 45.479 37.407 45.479 29.433C45.479 21.459 39.014 14.994 31.04 14.994C23.078 14.994 16.622 21.438 16.601 29.394V29.396C16.65 37.281 22.988 43.669 30.849 43.799H30.861L30.897 43.871ZM12.384 19.049C12.345 17.928 11.436 17.031 10.313 17.012H10.311C9.176 17.012 8.256 17.932 8.256 19.067C8.256 20.202 9.176 21.122 10.311 21.122C11.448 21.102 12.364 20.186 12.384 19.051V19.049Z" fill="#CCBA8D"></path>
      <path d="M42.28 6.16506H19.532C19.889 4.73506 20.211 3.35906 20.568 1.98306C20.646 0.853064 21.582 -0.0339355 22.725 -0.0339355C22.859 -0.0339355 22.991 -0.0219355 23.118 0.00206446L23.105 6.4455e-05H38.938C39.008 -0.00793555 39.089 -0.0129355 39.17 -0.0129355C40.219 -0.0129355 41.085 0.766065 41.224 1.77606L41.225 1.78706C41.565 3.07406 41.886 4.36006 42.208 5.64706C42.244 5.80806 42.244 5.96906 42.279 6.16506H42.28Z" fill="#CCBA8D"></path>
      <path d="M30.861 43.799C22.902 43.778 16.459 37.322 16.459 29.36C16.459 21.386 22.924 14.921 30.898 14.921C38.872 14.921 45.337 21.386 45.337 29.36C45.337 29.41 45.337 29.46 45.336 29.511V29.503C45.215 37.412 38.785 43.78 30.863 43.799H30.861ZM30.861 39.671C36.556 39.671 41.172 35.055 41.172 29.36C41.172 23.665 36.556 19.049 30.861 19.049C25.179 19.049 20.57 23.645 20.55 29.322V29.324C20.55 29.345 20.55 29.371 20.55 29.396C20.55 35.071 25.15 39.671 30.825 39.671C30.863 39.671 30.901 39.671 30.938 39.67H30.932L30.861 39.671Z" fill="#CCBA8D"></path>
      <path d="M12.384 19.049C12.365 20.174 11.468 21.083 10.35 21.122H10.346C9.211 21.122 8.291 20.202 8.291 19.067C8.291 17.932 9.211 17.012 10.346 17.012C11.455 17.05 12.345 17.94 12.383 19.046V19.05L12.384 19.049Z" fill="#BDAE82"></path>
      <path d="M31.129 21.1401C35.507 21.2841 39.019 24.8011 39.152 29.1691V29.1821C39.154 29.2201 39.156 29.2651 39.156 29.3111C39.156 30.4431 38.272 31.3681 37.156 31.4341H37.15C37.145 31.4341 37.138 31.4341 37.132 31.4341C35.987 31.4341 35.059 30.5061 35.059 29.3611C35.02 27.1091 33.215 25.2921 30.972 25.2331H30.966C30.949 25.2331 30.93 25.2341 30.91 25.2341C29.785 25.2341 28.873 24.3221 28.873 23.1971C28.873 23.1651 28.874 23.1341 28.875 23.1021V23.1061C28.929 22.0051 29.836 21.1321 30.946 21.1321C31.01 21.1321 31.073 21.1351 31.135 21.1401L31.127 21.1391L31.129 21.1401Z" fill="#CCBA8D"></path>
    </g>
    <defs>
      <clipPath id="clip0_6_114">
        <rect width="62" height="50" fill="white"></rect>
      </clipPath>
    </defs>
  </symbol>
  <symbol xmlns="http://www.w3.org/2000/svg" viewBox="0 0 66 50" id="image 1">
    <g clip-path="url(#clip0_6_146)">
      <path d="M-1.41598e-05 48.5029V1.49692C0.361986 0.60892 1.21999 -0.00608008 2.21999 -0.00608008C2.27999 -0.00608008 2.33999 -0.00408008 2.39899 0.000919921H2.39099H63.727C63.784 -0.00408008 63.851 -0.00708008 63.918 -0.00708008C65.158 -0.00708008 66.163 0.99792 66.163 2.23792C66.163 2.30492 66.16 2.37192 66.154 2.43692L66.155 2.42892C66.155 11.9029 66.155 21.3779 66.155 30.8339C66.155 36.4749 66.155 42.1149 66.155 47.7559C66.163 47.8219 66.167 47.8989 66.167 47.9769C66.167 49.0759 65.276 49.9669 64.177 49.9669C64.147 49.9669 64.117 49.9659 64.087 49.9649H64.091H2.64499C2.54299 49.9789 2.42599 49.9879 2.30599 49.9879C1.28699 49.9879 0.407986 49.3869 0.00498584 48.5209L-0.00201416 48.5049L-1.41598e-05 48.5029ZM62.066 4.14392H4.12499V32.0919L4.76399 31.6539L15.991 23.6039C16.388 23.2059 16.936 22.9599 17.543 22.9599C18.15 22.9599 18.698 23.2059 19.095 23.6039L30.888 32.0559C32.713 33.3699 34.539 34.6849 36.364 35.9629C36.696 36.2189 37.117 36.3739 37.575 36.3739C38.476 36.3739 39.237 35.7759 39.482 34.9549L39.486 34.9409C39.537 34.7709 39.566 34.5759 39.566 34.3729C39.566 33.5999 39.141 32.9259 38.511 32.5729L38.501 32.5679C35.9577 30.7793 33.469 28.9843 31.035 27.1829L30.469 26.7629L30.798 26.5069L40.966 19.2049C41.363 18.8069 41.911 18.5609 42.518 18.5609C43.125 18.5609 43.673 18.8069 44.07 19.2049L61.412 31.6549L62.051 32.0749L62.066 4.14392Z" fill="#BDAE82"></path>
      <path d="M26.962 9.34597C29.987 9.34597 32.438 11.798 32.438 14.822C32.484 15.09 32.511 15.399 32.511 15.713C32.511 18.738 30.059 21.189 27.035 21.189C24.011 21.189 21.559 18.737 21.559 15.713C21.559 15.398 21.586 15.09 21.637 14.789L21.632 14.821C21.632 14.82 21.632 14.82 21.632 14.819C21.632 11.846 24.001 9.42597 26.955 9.34497H26.963L26.962 9.34597Z" fill="#CCBA8D"></path>
    </g>
    <defs>
      <clipPath id="clip0_6_146">
        <rect width="66" height="50" fill="white"></rect>
      </clipPath>
    </defs>
  </symbol>
  <symbol xmlns="http://www.w3.org/2000/svg" viewBox="0 0 32 50" id="mic 1">
    <g clip-path="url(#clip0_6_107)">
      <path d="M4.371 50V47.102H14.587V40.93C6.391 40.113 0.038 33.272 0 24.938V24.934H2.881C2.895 29.331 5.074 33.216 8.407 35.581L8.448 35.608C10.52 37.153 13.131 38.082 15.959 38.082C16.196 38.082 16.432 38.075 16.667 38.063L16.634 38.064C23.627 37.725 29.177 32.004 29.24 24.973V24.967H32.138C32.138 25 32.138 25.039 32.138 25.078C32.138 29.228 30.531 33.003 27.905 35.815L27.913 35.806C25.306 38.656 21.696 40.55 17.645 40.926L17.582 40.931V47.021H27.831V49.968L4.371 50Z" fill="#CCBA8D"></path>
      <path d="M26.326 11.706V16.11H19.04V19.024H26.309V23.412H19.056V26.359H26.194C25.475 31.369 21.212 35.177 16.06 35.177C10.908 35.177 6.64496 31.369 5.93196 26.414L5.92596 26.359H13.097V23.461H5.86096V19.057H13.097V16.126H5.86096V11.755H13.097V8.792H5.95896C6.72396 3.832 10.963 0.0780029 16.078 0.0780029C21.187 0.0780029 25.422 3.823 26.187 8.718L26.194 8.776H19.039V11.707L26.326 11.706Z" fill="#BDAE82"></path>
    </g>
    <defs>
      <clipPath id="clip0_6_107">
        <rect width="32" height="50" fill="white"></rect>
      </clipPath>
    </defs>
  </symbol>
  <symbol  xmlns="http://www.w3.org/2000/svg" viewBox="0 0 188 50" id="social-list">
    <path d="M17.36 11.667C19.76 11.667 20.267 11.694 21.493 11.747C22.906 11.814 23.88 12.04 24.72 12.374C25.6 12.707 26.347 13.174 27.08 13.907C27.827 14.64 28.28 15.387 28.627 16.267C28.96 17.107 29.174 18.08 29.24 19.507C29.307 20.774 29.32 21.267 29.32 23.934V26.067C29.32 28.734 29.307 29.227 29.24 30.494C29.217 31.659 28.994 32.764 28.604 33.788L28.626 33.721C28.279 34.601 27.826 35.348 27.093 36.081C26.346 36.828 25.6 37.281 24.72 37.628C23.88 37.961 22.907 38.175 21.493 38.241C20.226 38.308 19.72 38.321 17.053 38.321H14.933C12.266 38.321 11.773 38.308 10.493 38.241C9.32796 38.218 8.22296 37.995 7.19896 37.605L7.26596 37.627C6.34296 37.274 5.55596 36.753 4.90696 36.094L4.90596 36.093C4.23996 35.441 3.71396 34.649 3.37396 33.764L3.35896 33.719C2.99196 32.763 2.76896 31.657 2.74596 30.502V30.492C2.69296 29.45 2.66296 28.229 2.66296 27.002C2.66296 26.776 2.66396 26.55 2.66596 26.325V26.359V23.626C2.66596 21.226 2.69296 20.719 2.74596 19.493C2.81296 18.08 3.03896 17.106 3.35896 16.266C3.70596 15.386 4.15896 14.639 4.90596 13.906C5.55096 13.239 6.33996 12.716 7.22296 12.387L7.26596 12.373C8.22096 12.002 9.32596 11.774 10.481 11.747H10.493C11.72 11.694 12.226 11.667 14.626 11.667H17.36ZM17.387 14.067H14.6C12.293 14.067 11.8 14.094 10.6 14.147C9.30696 14.2 8.59996 14.414 8.13296 14.6C7.50596 14.84 7.06596 15.133 6.59996 15.6C6.13396 16.067 5.83996 16.507 5.59996 17.133C5.42696 17.6 5.19996 18.306 5.14696 19.613C5.09396 20.813 5.06696 21.293 5.06696 23.613V26.386C5.06696 28.706 5.09396 29.186 5.14696 30.386C5.19996 31.679 5.41396 32.386 5.59996 32.853C5.83996 33.48 6.13296 33.92 6.59996 34.386C7.06696 34.852 7.50696 35.146 8.13296 35.386C8.59996 35.573 9.30596 35.786 10.613 35.839C11.906 35.906 12.373 35.919 15.253 35.919H16.733C19.626 35.919 20.08 35.906 21.386 35.839C22.679 35.786 23.386 35.572 23.853 35.386C24.48 35.146 24.92 34.853 25.386 34.386C25.852 33.919 26.146 33.479 26.386 32.853C26.573 32.386 26.786 31.68 26.839 30.386C26.906 29.079 26.919 28.626 26.919 25.733V24.266C26.919 21.373 26.906 20.906 26.839 19.599C26.786 18.306 26.572 17.599 26.386 17.132C26.16 16.531 25.819 16.018 25.387 15.6L25.386 15.599C24.966 15.166 24.454 14.825 23.881 14.608L23.853 14.599C23.121 14.323 22.275 14.158 21.391 14.146H21.386C20.358 14.094 19.155 14.064 17.944 14.064C17.748 14.064 17.552 14.065 17.356 14.066H17.386L17.387 14.067ZM16 18.147C19.781 18.147 22.847 21.212 22.847 24.994C22.847 28.776 19.782 31.841 16 31.841C12.219 31.841 9.15296 28.776 9.15296 24.994C9.15296 21.212 12.218 18.147 16 18.147ZM16 20.547C13.544 20.547 11.553 22.538 11.553 24.994C11.553 27.45 13.544 29.441 16 29.441C18.456 29.441 20.447 27.45 20.447 24.994C20.447 22.538 18.456 20.547 16 20.547ZM23.107 16.28C23.991 16.28 24.707 16.996 24.707 17.88C24.707 18.764 23.991 19.48 23.107 19.48C22.223 19.48 21.507 18.764 21.507 17.88C21.507 16.996 22.223 16.28 23.107 16.28Z" fill="white"></path>
    <path d="M65.04 38.333L65 26.666H60V21.666H65V18.333C65 13.84 67.787 11.666 71.8 11.666C73.72 11.666 75.373 11.799 75.853 11.866V16.573H73.066C70.893 16.573 70.466 17.613 70.466 19.133V21.666H76.666L74.999 26.666H70.466V38.333H65.039H65.04Z" fill="white"></path>
    <path d="M133.333 16.84C132.333 17.333 131.333 17.507 130.16 17.667C131.333 17 132.16 16 132.493 14.667C131.488 15.275 130.317 15.738 129.07 15.989L129 16.001C127.969 14.987 126.56 14.355 125.004 14.334H125C122.16 14.334 119.667 16.841 119.667 19.841C119.667 20.334 119.667 20.668 119.84 21.001C115.262 20.823 111.221 18.664 108.529 15.362L108.507 15.334C108.082 16.06 107.831 16.932 107.831 17.863C107.831 17.972 107.834 18.081 107.841 18.189L107.84 18.174C107.874 20.052 108.849 21.695 110.313 22.655L110.334 22.668C109.494 22.668 108.667 22.335 107.827 22.001C107.827 24.668 109.667 26.841 112.16 27.334C111.667 27.507 111.16 27.507 110.667 27.507C110.334 27.507 110 27.507 109.667 27.334C110.334 29.507 112.334 31.174 114.84 31.174C113.04 32.629 110.724 33.509 108.203 33.509C108.132 33.509 108.061 33.508 107.99 33.507H108.001H106.668C109.033 35.016 111.904 35.936 114.984 36H115.001C125.001 36 130.508 27.667 130.508 20.493V19.826C131.655 19.036 132.601 18.039 133.311 16.882L133.335 16.84H133.333Z" fill="white"></path>
    <path d="M172 11.667C164.657 11.694 158.714 17.653 158.714 25C158.714 30.599 162.166 35.393 167.057 37.368L167.146 37.4C167.013 36.347 166.919 34.733 167.186 33.573L168.746 26.946C168.746 26.946 168.346 26.146 168.346 24.973C168.346 23.12 169.426 21.746 170.773 21.746C171.906 21.746 172.466 22.599 172.466 23.613C172.466 24.76 171.733 26.466 171.346 28.053C171.026 29.386 172.013 30.466 173.333 30.466C175.706 30.466 177.52 27.973 177.52 24.373C177.52 21.173 175.227 18.96 171.947 18.96C171.871 18.956 171.783 18.954 171.694 18.954C168.505 18.954 165.921 21.539 165.921 24.727C165.921 24.729 165.921 24.731 165.921 24.733C165.921 25.88 166.361 27.106 166.908 27.773C167.015 27.906 167.028 28.026 166.988 28.16L166.615 29.667C166.562 29.907 166.415 29.974 166.175 29.854C164.495 29.067 163.455 26.654 163.455 24.681C163.455 20.481 166.522 16.628 172.282 16.628C176.895 16.628 180.509 19.908 180.509 24.321C180.509 28.921 177.602 32.614 173.576 32.614C172.243 32.614 170.963 31.907 170.536 31.081L169.696 34.241C169.265 35.578 168.704 36.739 168.008 37.804L168.042 37.748C169.212 38.12 170.558 38.335 171.953 38.335C179.317 38.335 185.286 32.365 185.286 25.002C185.286 17.655 179.344 11.696 172.004 11.669H172.001L172 11.667Z" fill="white"></path>
  </symbol>
  <symbol  xmlns="http://www.w3.org/2000/svg" viewBox="0 0 60 50" id="video 1">
    <g clip-path="url(#clip0_6_144)">
      <path d="M59.843 1.30696V48.781C59.465 49.535 58.698 50.043 57.812 50.043C57.748 50.043 57.685 50.04 57.622 50.035L57.63 50.036H2.194C2.128 50.044 2.051 50.048 1.973 50.048C0.876 50.048 -0.0130005 49.159 -0.0130005 48.062C-0.0130005 47.984 -0.00900049 47.907 -4.88944e-07 47.831L-0.00100049 47.84C-0.00100049 32.6133 -0.00100049 17.387 -0.00100049 2.16096C-0.00600049 2.10596 -0.0100005 2.04196 -0.0100005 1.97696C-0.0100005 0.879962 0.878999 -0.00903808 1.976 -0.00903808C2.047 -0.00903808 2.116 -0.00503808 2.185 0.00196192L2.176 0.000961917C20.666 0.000961917 39.1447 0.000961917 57.612 0.000961917C57.687 -0.00803808 57.774 -0.0140381 57.863 -0.0140381C58.75 -0.0140381 59.511 0.524962 59.837 1.29296L59.842 1.30696H59.843ZM22.544 24.983V30.575C22.545 30.941 22.596 31.295 22.69 31.631L22.683 31.603C23.038 32.503 23.901 33.128 24.909 33.128C25.419 33.128 25.892 32.968 26.28 32.695L26.272 32.7C29.6 30.784 32.892 28.85 36.185 26.899C36.865 26.531 37.318 25.823 37.318 25.009C37.318 24.195 36.864 23.487 36.196 23.124L36.185 23.118C32.892 21.097 29.513 19.163 26.133 17.212C25.78 16.992 25.351 16.861 24.892 16.861C23.583 16.861 22.523 17.922 22.523 19.23C22.523 19.28 22.525 19.33 22.528 19.379V19.372C22.65 21.236 22.545 23.118 22.545 24.982L22.544 24.983ZM9.443 6.55096V3.57196H3.572V6.55096H9.443ZM3.484 46.376H9.442V43.449H3.484V46.376ZM18.833 3.57096H13.066V6.53296H18.833V3.57096ZM22.456 3.57096V6.53296H28.24V3.48396L22.456 3.57096ZM37.613 6.55096V3.57196H31.846V6.53396L37.613 6.55096ZM47.038 3.57096H41.219V6.53296H47.038V3.57096ZM37.631 46.394V43.554H31.847V46.481L37.631 46.394ZM18.815 46.394V43.554H13.048V46.481L18.815 46.394ZM28.24 46.394V43.554H22.473V46.498L28.24 46.394ZM47.038 43.449H41.219V46.376H47.038V43.449ZM56.289 6.55096V3.48496H50.627V6.55096H56.289ZM56.289 43.449H50.627V46.393H56.306L56.289 43.449Z" fill="#BDAE82"></path>
    </g>
    <defs>
      <clipPath id="clip0_6_144">
        <rect width="60" height="50" fill="white"></rect>
      </clipPath>
    </defs>
  </symbol>
</svg>